<svg width="134" height="32" viewBox="0 0 134 32" fill="none" xmlns="http://www.w3.org/2000/svg">
<path d="M15.9998 2.66667C23.3332 2.66667 29.3332 8.66667 29.3332 16C29.3332 23.3333 23.3332 29.3333 15.9998 29.3333C8.6665 29.3333 2.6665 23.3333 2.6665 16C2.6665 8.66667 8.6665 2.66667 15.9998 2.66667ZM15.9998 5.33334C10.1332 5.33334 5.33317 10.1333 5.33317 16C5.33317 21.8667 10.1332 26.6667 15.9998 26.6667C21.8665 26.6667 26.6665 21.8667 26.6665 16C26.6665 10.1333 21.8665 5.33334 15.9998 5.33334ZM22.6665 17.3333C22.6665 21.0667 19.7332 24 15.9998 24C12.2665 24 9.33317 21.0667 9.33317 17.3333H22.6665Z" fill="#27203C"/>
<path d="M38.2781 11.0579L40.1591 9.18766V16.034L38.874 15.0479H45.9537V18.1196H38.874L40.1591 17.0542V24.7166H36V7.99748H46.9935V11.0579H38.2781Z" fill="#27203C"/>
<path d="M50.0814 19.8539V17.3262H57.8505L57.5 17.9156C57.5 17.8552 57.5 17.7947 57.5 17.7343C57.5 17.6662 57.5 17.6058 57.5 17.5529C57.5 17.2128 57.4104 16.8766 57.2313 16.5441C57.0521 16.204 56.7679 15.9244 56.3784 15.7053C55.989 15.4786 55.4789 15.3652 54.848 15.3652C54.2249 15.3652 53.6953 15.4937 53.2591 15.7506C52.8308 16 52.5036 16.3703 52.2778 16.8615C52.0597 17.3451 51.9507 17.9307 51.9507 18.6184C51.9507 19.3363 52.0558 19.9521 52.2661 20.466C52.4842 20.9723 52.8152 21.3615 53.2591 21.6335C53.7031 21.898 54.2716 22.0302 54.9648 22.0302C55.3932 22.0302 55.7593 21.9962 56.063 21.9282C56.3745 21.8602 56.6238 21.7733 56.8107 21.6675C57.0054 21.5542 57.1495 21.4333 57.243 21.3048C57.3442 21.1688 57.4065 21.0365 57.4299 20.9081H61.5422C61.4955 21.4295 61.3086 21.9358 60.9815 22.427C60.6543 22.9106 60.2026 23.3489 59.6263 23.7418C59.0577 24.1272 58.3645 24.4333 57.5467 24.66C56.7367 24.8867 55.8177 25 54.7896 25C53.3799 25 52.1532 24.7355 51.1095 24.2066C50.0658 23.67 49.2558 22.9295 48.6795 21.9849C48.1109 21.0403 47.8266 19.9521 47.8266 18.7204C47.8266 17.466 48.1187 16.3703 48.7028 15.4332C49.287 14.4887 50.1009 13.7557 51.1445 13.2343C52.196 12.7053 53.411 12.4408 54.7896 12.4408C56.2149 12.4408 57.4455 12.7091 58.4813 13.2456C59.5172 13.7746 60.3155 14.5227 60.8763 15.4899C61.4371 16.4572 61.7175 17.5945 61.7175 18.9018C61.7175 19.1058 61.7136 19.2909 61.7058 19.4572C61.698 19.6234 61.6863 19.7557 61.6707 19.8539H50.0814Z" fill="#27203C"/>
<path d="M65.3238 19.8539V17.3262H73.0929L72.7424 17.9156C72.7424 17.8552 72.7424 17.7947 72.7424 17.7343C72.7424 17.6662 72.7424 17.6058 72.7424 17.5529C72.7424 17.2128 72.6528 16.8766 72.4737 16.5441C72.2945 16.204 72.0103 15.9244 71.6208 15.7053C71.2314 15.4786 70.7213 15.3652 70.0904 15.3652C69.4673 15.3652 68.9377 15.4937 68.5015 15.7506C68.0732 16 67.746 16.3703 67.5202 16.8615C67.3021 17.3451 67.1931 17.9307 67.1931 18.6184C67.1931 19.3363 67.2982 19.9521 67.5085 20.466C67.7266 20.9723 68.0576 21.3615 68.5015 21.6335C68.9455 21.898 69.514 22.0302 70.2072 22.0302C70.6356 22.0302 71.0016 21.9962 71.3054 21.9282C71.6169 21.8602 71.8662 21.7733 72.0531 21.6675C72.2478 21.5542 72.3919 21.4333 72.4854 21.3048C72.5866 21.1688 72.6489 21.0365 72.6723 20.9081H76.7846C76.7379 21.4295 76.551 21.9358 76.2239 22.427C75.8967 22.9106 75.445 23.3489 74.8686 23.7418C74.3001 24.1272 73.6069 24.4333 72.7891 24.66C71.9791 24.8867 71.0601 25 70.032 25C68.6222 25 67.3956 24.7355 66.3519 24.2066C65.3082 23.67 64.4982 22.9295 63.9219 21.9849C63.3533 21.0403 63.069 19.9521 63.069 18.7204C63.069 17.466 63.3611 16.3703 63.9452 15.4332C64.5294 14.4887 65.3433 13.7557 66.3869 13.2343C67.4384 12.7053 68.6534 12.4408 70.032 12.4408C71.4573 12.4408 72.6879 12.7091 73.7237 13.2456C74.7596 13.7746 75.5579 14.5227 76.1187 15.4899C76.6795 16.4572 76.9599 17.5945 76.9599 18.9018C76.9599 19.1058 76.956 19.2909 76.9482 19.4572C76.9404 19.6234 76.9287 19.7557 76.9131 19.8539H65.3238Z" fill="#27203C"/>
<path d="M82.4075 21.6335H88.9382V24.7166H77.9797V21.8149L84.3118 15.6033L84.417 15.7506H78.2017V12.6788H88.7863V15.5806L82.5127 21.7695L82.4075 21.6335Z" fill="#27203C"/>
<path d="M98.8081 24.9887C97.8268 24.9887 96.9272 24.728 96.1094 24.2066C95.2994 23.6851 94.653 22.9824 94.1701 22.0982C93.6872 21.2066 93.4457 20.2128 93.4457 19.1171C93.4457 19.0869 93.4457 19.0567 93.4457 19.0264C93.4457 18.9887 93.4457 18.9509 93.4457 18.9131L95.058 18.8791C95.058 18.9018 95.058 18.9282 95.058 18.9584C95.058 18.9811 95.058 19 95.058 19.0151C95.058 19.5441 95.1826 20.0013 95.4318 20.3867C95.6888 20.7645 96.016 21.0554 96.4132 21.2594C96.8182 21.4559 97.2349 21.5542 97.6632 21.5542C98.3564 21.5542 98.9717 21.3199 99.5091 20.8514C100.047 20.3829 100.315 19.6423 100.315 18.6297C100.315 17.6171 100.047 16.8879 99.5091 16.4421C98.9795 15.9887 98.3642 15.762 97.6632 15.762C97.2427 15.762 96.8299 15.8602 96.4249 16.0567C96.0276 16.2456 95.7005 16.5252 95.4435 16.8955C95.1865 17.2582 95.058 17.7078 95.058 18.2443L93.4457 18.1423C93.4457 17.039 93.6872 16.0605 94.1701 15.2065C94.653 14.3526 95.2994 13.6801 96.1094 13.1889C96.9272 12.6977 97.8268 12.4521 98.8081 12.4521C99.8129 12.4521 100.755 12.6902 101.635 13.1662C102.523 13.6423 103.24 14.3413 103.785 15.2632C104.338 16.1776 104.614 17.2997 104.614 18.6297C104.614 20.0277 104.346 21.199 103.808 22.1436C103.271 23.0806 102.562 23.7909 101.682 24.2746C100.802 24.7506 99.844 24.9887 98.8081 24.9887ZM90.8872 24.7166V7H95.058V24.7166H90.8872Z" fill="#27203C"/>
<path d="M110.768 24.9773C109.872 24.9773 109.074 24.8413 108.373 24.5693C107.672 24.2897 107.119 23.8854 106.714 23.3564C106.309 22.8275 106.106 22.1851 106.106 21.4295C106.106 20.5605 106.36 19.8577 106.866 19.3212C107.372 18.7771 108.03 18.3652 108.84 18.0856C109.65 17.7985 110.507 17.6134 111.41 17.5302C112.719 17.4093 113.611 17.3035 114.086 17.2128C114.569 17.1146 114.81 16.9484 114.81 16.7141C114.81 16.7065 114.81 16.7028 114.81 16.7028C114.81 16.6952 114.81 16.6914 114.81 16.6914C114.81 16.3287 114.611 16.034 114.214 15.8073C113.825 15.5806 113.287 15.4673 112.602 15.4673C111.878 15.4673 111.329 15.5957 110.955 15.8526C110.589 16.102 110.406 16.4836 110.406 16.9975H106.293C106.293 16.0076 106.574 15.1763 107.135 14.5038C107.703 13.8237 108.466 13.3098 109.424 12.9622C110.382 12.6146 111.453 12.4408 112.637 12.4408C113.759 12.4408 114.798 12.6033 115.756 12.9282C116.722 13.2531 117.501 13.7481 118.093 14.4131C118.693 15.0781 118.993 15.9244 118.993 16.9521C118.993 17.1108 118.993 17.2695 118.993 17.4282C118.993 17.5869 118.993 17.7456 118.993 17.9043V21.8942C118.993 22.2116 119 22.5214 119.016 22.8237C119.031 23.1184 119.074 23.3904 119.144 23.6398C119.23 23.9118 119.335 24.1423 119.46 24.3312C119.592 24.5202 119.697 24.6486 119.775 24.7166H115.698C115.636 24.6562 115.542 24.539 115.418 24.3652C115.301 24.1914 115.2 23.9912 115.114 23.7645C115.013 23.4622 114.939 23.1713 114.892 22.8917C114.845 22.6045 114.822 22.2645 114.822 21.8715L115.71 22.461C115.492 22.9824 115.133 23.432 114.635 23.8098C114.144 24.1877 113.564 24.4786 112.894 24.6826C112.224 24.8791 111.516 24.9773 110.768 24.9773ZM111.96 22.0416C112.442 22.0416 112.906 21.9471 113.35 21.7582C113.794 21.5693 114.16 21.267 114.448 20.8514C114.736 20.4358 114.88 19.8804 114.88 19.1851V18.3577L115.932 19.2645C115.418 19.4383 114.833 19.5856 114.179 19.7065C113.525 19.8199 112.886 19.9068 112.263 19.9673C111.601 20.0353 111.107 20.1448 110.78 20.296C110.452 20.4471 110.289 20.6965 110.289 21.0441C110.289 21.3766 110.429 21.6259 110.709 21.7922C110.998 21.9584 111.414 22.0416 111.96 22.0416Z" fill="#27203C"/>
<path d="M121.418 24.7166V7H125.366V16.9068L124.607 16.5101L128.93 12.6788H134L127.785 18.097L128.638 16.6348L133.836 24.7166H129.479L125.904 18.7431L127.002 18.7657L124.958 20.5793L125.366 18.8678V24.7166H121.418Z" fill="#27203C"/>
</svg>
