<svg width="279" height="101" viewBox="0 0 279 101" fill="none" xmlns="http://www.w3.org/2000/svg">
    <path d="M75.1884 47.5323C75.2199 47.6359 75.2487 47.6932 75.2555 47.7546C75.3651 48.6969 75.4939 49.6379 75.5719 50.583C75.6733 51.7995 75.787 53.0201 75.7966 54.2393C75.8102 55.8635 75.7609 57.4891 75.6801 59.112C75.5788 61.1372 75.4103 63.1597 75.2898 65.1849C75.2528 65.804 75.272 66.4286 75.272 67.0491C75.272 67.1787 75.2884 67.311 75.3185 67.4378C75.3966 67.761 75.6486 67.9751 75.9623 68.0038C76.2883 68.0338 76.569 67.8851 76.7142 67.5865C76.7758 67.461 76.8087 67.3205 76.8457 67.1842C76.995 66.6373 77.1388 66.0891 77.2881 65.5436C77.3073 65.4713 77.3415 65.4031 77.41 65.3431C77.3415 65.7604 77.2675 66.1763 77.2086 66.5936C77.1648 66.906 77.1278 67.221 77.1128 67.536C77.0991 67.8197 77.2292 68.0447 77.4853 68.1797C77.9017 68.3993 78.3811 68.1538 78.4838 67.6656C78.5769 67.2278 78.644 66.7846 78.7522 66.3523C79.0084 65.339 79.1974 64.3039 79.6507 63.3492C79.9315 62.7587 80.1917 62.1532 80.5273 61.5927C81.1806 60.5031 82.0558 59.6275 83.2446 59.1147C84.528 58.5624 85.7949 58.6606 87.007 59.3207C87.8192 59.7625 88.4671 60.3899 88.9122 61.2136C89.1491 61.6527 89.3162 62.1096 89.3601 62.6046C89.4491 63.6097 89.4436 64.6121 89.13 65.5845C88.8725 66.3836 88.4013 67.0723 87.911 67.7419C87.196 68.7184 86.2195 69.3676 85.1457 69.8981C84.3417 70.2949 83.4898 70.5172 82.6173 70.6877C82.264 70.7572 81.9175 70.8745 81.5504 70.8241C81.4984 70.8172 81.4463 70.8063 81.397 70.7981C81.3395 70.2772 81.6175 69.9417 81.9914 69.6689C82.4612 69.3253 82.9652 69.0416 83.5158 68.8439C83.9062 68.7034 84.2924 68.5452 84.6759 68.387C84.7964 68.3379 84.9129 68.2711 85.017 68.1934C85.3717 67.9288 85.4813 67.5169 85.2964 67.1855C85.1183 66.865 84.6677 66.6973 84.2897 66.8528C83.6021 67.1351 82.9255 67.4433 82.2448 67.7419C82.1873 67.7665 82.1311 67.7951 82.0613 67.8279C82.0585 67.7774 81.8736 67.5851 81.8832 67.5592C82.1037 66.9782 82.3037 66.535 82.5571 65.9677C82.8228 65.3717 83.4227 64.8998 83.8993 64.4553C84.0815 64.2848 84.2595 64.0993 84.3965 63.8934C84.6102 63.5729 84.5307 63.1583 84.2486 62.9156C83.9664 62.6728 83.5323 62.6455 83.2529 62.9033C82.3955 63.6902 81.5874 64.5275 81.1559 65.6349C80.8711 66.3659 80.5862 67.1037 80.404 67.8633C80.0986 69.1343 79.8548 70.4204 79.6233 71.7078C79.4316 72.7742 79.17 73.8162 78.781 74.8281C78.5317 75.4786 78.3235 76.1455 77.9798 76.7592C77.1758 78.1952 76.1102 79.4172 74.9186 80.5382C72.9436 82.397 70.6892 84.0853 68.1499 85.0509C65.6832 85.9892 63.1931 86.8579 60.621 87.462C59.376 87.7539 58.1104 87.9721 56.8449 88.1603C54.3658 88.5285 51.8813 88.8735 49.3941 89.1858C47.6957 89.3999 45.9864 89.1558 44.2757 89.044C42.5486 88.9308 40.827 88.7522 39.1163 88.4876C37.7836 88.2817 36.4756 87.9694 35.18 87.5998C32.8981 86.9493 30.7834 85.9537 28.7906 84.6718C27.5278 83.859 26.2951 83.0093 25.172 82.0138C23.612 80.6309 22.4629 78.9671 21.7986 76.9869C21.4535 75.9559 21.1056 74.8895 21.2316 73.8175C21.4014 72.3733 21.9945 70.9577 22.5492 69.6076C22.8724 68.8207 23.2354 68.0502 23.586 67.2755C24.3694 65.5463 25.2049 63.8443 26.1732 62.2064C27.1402 60.5713 27.9579 58.8556 28.7879 57.1482C28.9974 56.7159 29.2056 56.2836 29.4316 55.8594C29.5275 55.6808 29.648 55.5035 29.7932 55.363C32.127 53.1114 34.7211 51.2076 37.5398 49.6025C37.622 49.5561 37.7097 49.5152 37.822 49.5111C37.7371 49.5793 37.6535 49.6502 37.5672 49.7157C36.5058 50.5257 35.4676 51.3631 34.5266 52.3136C34.4116 52.4296 34.2952 52.5468 34.1925 52.6737C33.9021 53.0323 33.9076 53.4919 34.1979 53.8465C34.4472 54.1506 34.8184 54.2202 35.2402 54.0129C37.2152 53.0419 39.2738 52.2632 41.2968 51.3999C41.4556 51.3317 41.6186 51.2731 41.8131 51.1981C41.82 51.3263 41.8241 51.419 41.8309 51.5117C41.8734 52.0327 42.2432 52.4105 42.7705 52.4227C43.0294 52.4282 43.2978 52.3914 43.5471 52.3232C44.0538 52.1854 44.5496 52.0136 45.0509 51.8554C45.1427 51.8268 45.2345 51.7927 45.3879 51.7408C45.3276 51.8445 45.2988 51.9059 45.2591 51.9591C45.0126 52.2932 44.7551 52.6191 44.5209 52.9614C44.4045 53.1305 44.299 53.3174 44.2415 53.5124C44.0443 54.1861 44.5784 54.748 45.2715 54.6034C45.4413 54.5679 45.6084 54.5052 45.7645 54.4275C46.5781 54.0252 47.3985 53.6324 48.1984 53.2042C51.5827 51.3904 55.0014 49.642 58.4843 48.0191C61.2222 46.7426 63.9903 45.5357 66.8391 44.5265C68.2101 44.041 69.5935 43.5869 70.9741 43.1259C71.4178 42.9773 71.8712 42.8559 72.3067 42.725C72.356 42.7836 72.3875 42.8041 72.3971 42.8327C72.9751 44.6533 73.2367 46.4208 72.4231 48.195C72.0588 48.9874 71.7246 49.8329 71.3754 50.6321C71.148 51.1544 70.7385 51.6427 70.381 52.0872C70.1988 52.3136 70.0934 52.435 70.2317 52.5959C70.3796 52.7691 70.6084 52.6655 70.822 52.5086C71.4397 52.0559 71.9657 51.6699 72.5094 51.1244C73.4901 50.1371 74.305 49.0351 75.0022 47.8459C75.0556 47.7546 75.1117 47.6632 75.1898 47.5323H75.1884ZM35.3265 71.51C35.3772 71.5387 35.4087 71.5509 35.432 71.5714C36.4729 72.4742 37.6823 73.0756 38.978 73.5148C40.7653 74.1217 42.613 74.3985 44.4921 74.4708C46.8794 74.5635 49.2407 74.3399 51.5718 73.8162C53.8919 73.2952 56.1162 72.5165 58.1899 71.3409C59.6088 70.5363 60.9031 69.5762 61.9564 68.3175C61.9824 68.2861 62.0207 68.2643 62.0632 68.2302C62.1782 68.2793 62.2865 68.3256 62.396 68.3734C63.2904 68.7634 64.2204 68.9871 65.201 68.9584C65.3531 68.9543 65.5092 68.938 65.6544 68.8943C65.8475 68.8357 65.9489 68.6461 65.9201 68.4566C65.8927 68.2793 65.7598 68.1429 65.5695 68.1197C65.4722 68.1074 65.3722 68.1238 65.275 68.117C64.8614 68.087 64.4409 68.0897 64.0341 68.0147C62.9576 67.817 62.0125 67.3192 61.1455 66.6659C61.0497 66.5936 60.9538 66.5173 60.847 66.4668C60.6744 66.3864 60.4922 66.4382 60.3744 66.5814C60.2566 66.7232 60.2402 66.9155 60.3566 67.0655C60.4361 67.1678 60.5415 67.251 60.6429 67.3314C60.8018 67.4583 60.9675 67.5756 61.1455 67.7078C60.7429 68.1961 60.3114 68.612 59.8471 68.9952C58.3542 70.2281 56.6627 71.1132 54.8575 71.7869C51.3978 73.0811 47.819 73.6389 44.1251 73.4398C42.6322 73.3593 41.1625 73.1356 39.7313 72.6992C38.5287 72.3338 37.3919 71.8332 36.3935 71.0559C36.2921 70.9768 36.199 70.8895 36.0963 70.7995C36.1853 70.6768 36.262 70.5854 36.3236 70.4831C36.414 70.3345 36.5126 70.1858 36.5715 70.0249C36.6482 69.8149 36.5414 69.5939 36.3524 69.4998C36.1675 69.4071 35.9634 69.4494 35.8182 69.6158C35.7758 69.6649 35.7511 69.729 35.7073 69.7767C35.4799 70.0263 35.2841 70.3195 35.0156 70.5131C34.0664 71.1977 33.068 71.776 31.8216 71.6696C31.5354 71.645 31.282 71.896 31.2669 72.166C31.2505 72.4538 31.4477 72.6638 31.7709 72.6992C31.8257 72.7047 31.8805 72.7033 31.9353 72.7047C32.3777 72.7224 32.8091 72.6556 33.2337 72.5383C33.9911 72.3283 34.6773 71.9737 35.3293 71.5046L35.3265 71.51ZM70.003 58.4738C69.8619 58.3469 69.7058 58.3238 69.5455 58.3306C69.0977 58.3497 68.647 58.3579 68.2005 58.4001C66.2173 58.587 64.2998 59.0616 62.4344 59.7503C62.3358 59.7871 62.2344 59.8171 62.1207 59.8553C62.0947 59.7625 62.0755 59.6903 62.055 59.618C61.9194 59.1475 61.8084 58.6688 61.6386 58.2106C61.4428 57.6841 61.1305 57.2205 60.6895 56.8591C60.1882 56.4486 59.617 56.2781 58.9733 56.4104C58.4761 56.5127 58.0639 56.7772 57.7036 57.125C57.2243 57.5873 56.8736 58.1397 56.6079 58.7411C55.9012 60.3408 55.6095 62.0046 55.8574 63.7488C55.8902 63.9834 55.9163 64.2111 55.8601 64.458C55.7807 64.8098 55.9574 65.0758 56.3094 65.2381C56.36 65.1726 56.4107 65.1017 56.4655 65.0362C56.8394 64.5957 57.19 64.1307 57.5954 63.7216C58.8815 62.426 60.4142 61.485 62.0646 60.7213C64.3135 59.6807 66.6775 59.0247 69.1168 58.6211C69.4113 58.572 69.7058 58.5215 70.0016 58.4724L70.003 58.4738ZM26.0637 62.8747C26.0691 62.9019 26.0746 62.9306 26.0787 62.9578C26.1869 62.9578 26.2951 62.9633 26.402 62.9578C27.8236 62.8651 29.2467 62.8528 30.6684 62.9538C32.5763 63.0874 34.4513 63.397 36.2661 64.0093C37.9316 64.5712 39.4724 65.354 40.7777 66.5514C40.8146 66.5855 40.8653 66.6059 40.9174 66.6373C41.1557 66.4355 41.231 66.1927 41.2036 65.8995C41.1913 65.7645 41.1954 65.6172 41.2351 65.489C41.4967 64.6339 41.7282 63.7706 41.8378 62.8815C41.9583 61.9064 41.7844 60.9872 41.2146 60.1717C40.6859 59.4148 39.8313 59.1161 38.9314 59.3329C38.3753 59.4666 37.8987 59.7475 37.4618 60.1021C36.8523 60.5958 36.362 61.1945 35.9442 61.8532C35.7347 62.1832 35.5484 62.5269 35.3443 62.8747C35.2854 62.8651 35.2211 62.8569 35.158 62.8447C33.4022 62.4914 31.6285 62.3264 29.837 62.3673C28.7071 62.3932 27.5853 62.4983 26.48 62.741C26.3376 62.7724 26.2006 62.831 26.0609 62.8774L26.0637 62.8747ZM47.5094 68.818C49.2119 68.7593 50.5815 68.2615 51.7444 67.2373C52.258 66.7846 52.6716 66.2527 52.9633 65.6322C53.0702 65.4031 53.151 65.1644 53.1236 64.9067C53.0866 64.5698 52.9277 64.3066 52.6182 64.1525C52.321 64.0052 52.069 64.1211 51.832 64.3066C51.5307 64.5412 51.2225 64.7689 50.9226 65.0062C50.6171 65.249 50.2871 65.4249 49.8899 65.4644C49.4543 65.5081 49.0229 65.5858 48.586 65.6145C47.015 65.7167 45.5152 65.4467 44.1059 64.728C43.9991 64.6735 43.8867 64.6271 43.7731 64.5916C43.4704 64.4962 43.18 64.6053 43.0129 64.8739C42.8732 65.0976 42.8184 65.3431 42.8979 65.594C42.9595 65.789 43.0362 65.9895 43.1526 66.1545C43.3841 66.4832 43.632 66.805 43.9032 67.1023C44.9099 68.2097 46.1727 68.773 47.5108 68.8166L47.5094 68.818ZM56.497 55.2744C56.5504 55.2062 56.5915 55.1571 56.6285 55.1039C57.6133 53.7265 58.8363 52.6 60.258 51.6849C61.136 51.119 62.0632 50.6526 63.0904 50.4194C63.9423 50.2257 64.7847 50.1848 65.5667 50.6785C65.6886 50.7548 65.7955 50.7248 65.9037 50.658C66.1598 50.4985 66.2789 50.2666 66.2529 49.9679C66.2283 49.6802 66.0215 49.432 65.7338 49.357C65.5969 49.3215 65.4531 49.3079 65.312 49.2983C64.2067 49.2288 63.1247 49.372 62.0742 49.7116C59.6033 50.5094 57.7475 52.0832 56.3546 54.2338C56.3244 54.2802 56.297 54.3266 56.2737 54.3756C56.1203 54.7057 56.1847 54.9866 56.4984 55.273L56.497 55.2744ZM41.2831 58.2515C41.4269 57.9064 41.3776 57.6487 41.0845 57.4046C40.7996 57.1673 40.501 56.9423 40.1901 56.7404C38.7369 55.8049 37.1358 55.2866 35.421 55.1094C34.2787 54.9907 33.1461 55.0562 32.0353 55.3685C31.8682 55.4162 31.6942 55.4639 31.5449 55.5485C31.0752 55.8131 31.0546 56.4036 31.5176 56.7459C31.8202 56.3449 32.2517 56.1526 32.7365 56.0613C33.246 55.9644 33.7569 55.9426 34.2733 55.9767C35.1717 56.0354 36.0565 56.1881 36.9263 56.4145C38.426 56.8045 39.8764 57.3187 41.1694 58.1997C41.2036 58.2228 41.2447 58.2337 41.2844 58.2501L41.2831 58.2515Z" fill="#F7F6F3"/>
    <path d="M12.356 55.6367C11.7068 55.604 11.1699 54.9398 10.8125 54.4543C9.98794 53.3347 9.27299 51.8441 9.60718 50.4626C9.9359 49.1029 11.1521 48.0814 12.1218 47.1186C14.9474 44.312 18.8509 42.8759 22.5708 41.6485C24.2979 41.0785 26.0702 40.6803 27.8507 40.312C30.5215 39.7597 33.2101 39.3179 35.9179 38.9878C37.7546 38.7642 39.5926 38.546 41.4348 38.3741C45.5821 37.9868 49.7389 37.8027 53.9053 37.9732C55.8653 38.0523 57.8211 38.1832 59.7688 38.4137C61.5986 38.6305 63.3997 39.0015 65.1747 39.4883C66.7252 39.9138 68.2633 40.3857 69.8068 40.8371C69.8685 40.8548 69.9274 40.8821 69.9917 40.9557C69.7767 40.9953 69.563 41.0417 69.3466 41.0744C67.6483 41.3376 65.954 41.6253 64.2516 41.8531C62.9066 42.0318 61.5507 42.1299 60.2016 42.2772C59.6907 42.3331 59.1826 42.4177 58.6758 42.505C58.4402 42.5459 58.2266 42.5268 58.0047 42.4341C56.8829 41.9677 55.753 41.5299 54.5778 41.2053C52.9452 40.7553 51.2756 40.548 49.5978 40.3652C47.3612 40.1211 45.1164 40.0952 42.8702 40.1047C41.2362 40.1116 39.6077 40.2152 37.9874 40.4157C36.6945 40.5752 35.4002 40.7321 34.1196 40.9666C31.5036 41.4453 28.893 41.9527 26.2894 42.4872C23.5035 43.0587 20.8259 43.9778 18.2085 45.0839C16.9567 45.613 15.7349 46.1967 14.5502 46.8609C12.5588 47.9778 11.007 49.9839 11.096 52.3459C11.1453 53.6633 11.7657 54.5389 12.3574 55.6367H12.356Z" fill="#FF7F61"/>
    <path d="M27.2418 38.8416C26.8446 39.4021 25.6394 39.4144 24.9189 39.368C24.4108 36.5396 24.8874 32.7783 25.4928 30.0057C25.942 27.9519 26.8734 26.179 27.5801 24.1988C27.9116 23.2701 28.1965 22.4818 28.6772 21.6418C28.9511 21.1617 29.3867 19.8157 29.9674 19.6179C29.8619 21.0731 29.2593 22.7614 28.9635 24.2029C28.6512 25.7208 28.3773 27.2468 28.1417 28.7783C27.6637 31.8823 27.6705 35.0203 27.224 38.1256C27.1898 38.3602 27.3487 38.6889 27.2418 38.8402V38.8416Z" fill="#FF7F61"/>
    <path d="M81.1797 43.0657C80.7907 43.2744 79.4047 42.4793 78.7116 42.2202C77.7748 41.8683 73.8494 40.9096 72.9044 40.5796C69.1584 39.2676 68.2216 39.1435 64.5345 37.6816C64.5044 37.6693 64.4715 37.6652 64.44 37.657C63.8319 29.8017 54.0951 14.8521 58.8533 13.8961C60.8064 13.5033 71.3717 19.778 75.0944 25.3176C77.1735 28.4107 78.9883 31.7042 79.9854 35.2895C80.3251 36.5128 80.5716 37.7607 80.7483 39.0181C80.8373 39.6468 81.0386 40.285 81.0962 40.9178C81.1482 41.496 81.3591 42.0729 81.3701 42.6907C81.3701 42.7562 81.2304 43.0398 81.1797 43.0671V43.0657Z" fill="#FF7F61"/>
    <path d="M20.3922 71.405C20.332 71.3627 20.2498 71.3068 20.2306 71.2822C19.113 69.9103 18.7048 68.3419 19.1404 66.6127C19.2226 66.2826 19.3965 65.9594 19.591 65.6771C20.1183 64.9134 20.9593 64.6475 21.8468 64.9284C22.1495 65.0239 22.9808 65.4317 23.2438 65.6594C23.1233 65.9267 23.0055 66.1913 22.8809 66.4681C22.8192 66.4449 22.7781 66.4354 22.7439 66.4136C22.1755 66.0685 21.3373 66.2881 20.9346 66.79C20.6607 67.1309 20.4895 67.5128 20.4566 67.9505C20.4169 68.4783 20.6525 68.8943 20.8469 69.3907C20.9784 69.7248 21.1017 70.0194 21.2387 70.3521C21.2702 70.4271 21.1496 70.6535 21.1332 70.7272C20.9866 70.9849 20.7634 71.4036 20.3922 71.4036V71.405Z" fill="white"/>
    <path d="M35.3193 71.5095C34.6687 71.9773 33.9811 72.3333 33.2237 72.5433C32.7991 72.6606 32.3677 72.7274 31.9253 72.7097C31.8705 72.7069 31.8157 72.7097 31.761 72.7042C31.4377 72.6687 31.2405 72.4601 31.2569 72.171C31.2734 71.9009 31.5254 71.65 31.8116 71.6746C33.058 71.7809 34.0565 71.2041 35.0056 70.5181C35.2741 70.3244 35.4713 70.0312 35.6973 69.7816C35.7411 69.7339 35.7658 69.6685 35.8082 69.6207C35.9534 69.4543 36.1575 69.4121 36.3424 69.5048C36.5328 69.5989 36.6396 69.8198 36.5615 70.0299C36.5026 70.1908 36.4027 70.3394 36.3136 70.4881C36.252 70.589 36.1753 70.6817 36.0863 70.8045C36.189 70.8931 36.2821 70.9818 36.3835 71.0609C37.382 71.8382 38.5201 72.3387 39.7213 72.7042C41.1526 73.1392 42.6222 73.3629 44.1151 73.4447C47.809 73.6438 51.3879 73.0861 54.8476 71.7918C56.6527 71.1168 58.3442 70.2331 59.8371 69.0002C60.3015 68.617 60.7329 68.201 61.1356 67.7128C60.9589 67.5805 60.7918 67.4632 60.6329 67.3364C60.5316 67.2546 60.4261 67.1714 60.3467 67.0705C60.2289 66.9205 60.2467 66.7282 60.3645 66.5863C60.4822 66.4431 60.6658 66.3913 60.837 66.4718C60.9438 66.5222 61.0397 66.5986 61.1356 66.6709C62.0025 67.3241 62.9476 67.8205 64.0241 68.0197C64.4295 68.0947 64.85 68.0919 65.265 68.1219C65.3636 68.1288 65.4636 68.1124 65.5595 68.1247C65.7499 68.1492 65.8841 68.2842 65.9101 68.4615C65.9389 68.6497 65.8375 68.8406 65.6444 68.8993C65.5006 68.9429 65.3431 68.9579 65.1911 68.9634C64.209 68.992 63.279 68.7684 62.386 68.3783C62.2765 68.3306 62.1669 68.2842 62.0532 68.2351C62.0108 68.2692 61.9724 68.291 61.9464 68.3224C60.8945 69.5812 59.5988 70.5413 58.1799 71.3459C56.1063 72.5201 53.882 73.3002 51.5618 73.8211C49.2307 74.3448 46.8694 74.5685 44.4821 74.4757C42.6016 74.4035 40.7554 74.1252 38.968 73.5197C37.6709 73.0792 36.4629 72.4792 35.422 71.5764C35.3987 71.5559 35.3672 71.5436 35.3165 71.515L35.3193 71.5095Z" fill="#151020"/>
    <path d="M70.0064 58.4749C69.712 58.524 69.4175 58.5759 69.1216 58.6236C66.6823 59.0273 64.317 59.6832 62.0694 60.7238C60.4203 61.4875 58.8877 62.4285 57.6003 63.7241C57.1935 64.1332 56.8442 64.5983 56.4703 65.0388C56.4142 65.1042 56.3648 65.1751 56.3142 65.2406C55.9622 65.0783 55.7855 64.8124 55.8649 64.4605C55.9211 64.215 55.8951 63.9859 55.8622 63.7514C55.6143 62.0071 55.9046 60.3433 56.6127 58.7436C56.8785 58.1408 57.2305 57.5885 57.7085 57.1275C58.0687 56.7798 58.4796 56.5152 58.9781 56.4129C59.6218 56.2806 60.1916 56.4511 60.6943 56.8616C61.1367 57.2244 61.4489 57.6867 61.6434 58.2131C61.8133 58.67 61.9228 59.15 62.0598 59.6205C62.0803 59.6928 62.0995 59.7651 62.1255 59.8578C62.2392 59.8196 62.3406 59.7882 62.4392 59.7528C64.3046 59.0641 66.2221 58.5895 68.2054 58.4027C68.6519 58.3604 69.1011 58.3536 69.5503 58.3331C69.7106 58.3263 69.8667 58.3495 70.0078 58.4763L70.0064 58.4749Z" fill="#151020"/>
    <path d="M26.0616 62.8746C26.2013 62.8282 26.3383 62.771 26.4808 62.7382C27.5861 62.4955 28.7078 62.3905 29.8377 62.3646C31.6292 62.3223 33.4029 62.4887 35.1588 62.8419C35.2218 62.8542 35.2861 62.8623 35.345 62.8719C35.5491 62.5228 35.7354 62.1805 35.9449 61.8504C36.3627 61.1917 36.853 60.5944 37.4625 60.0993C37.8994 59.7448 38.3761 59.4638 38.9321 59.3302C39.832 59.1133 40.6866 59.412 41.2153 60.1689C41.7851 60.9844 41.959 61.9036 41.8385 62.8787C41.7289 63.7679 41.4975 64.6311 41.2359 65.4862C41.1961 65.6144 41.192 65.7617 41.2044 65.8967C41.2317 66.1899 41.1564 66.4327 40.9181 66.6345C40.8661 66.6032 40.8154 66.5827 40.7784 66.5486C39.4731 65.3526 37.9323 64.5684 36.2668 64.0065C34.4507 63.3942 32.5756 63.0846 30.6691 62.951C29.2461 62.8514 27.8244 62.8623 26.4027 62.9551C26.2959 62.9619 26.1877 62.9551 26.0795 62.9551C26.074 62.9278 26.0685 62.8992 26.0644 62.8719L26.0616 62.8746Z" fill="#151020"/>
    <path d="M47.5109 68.8192C45.9865 68.7388 44.9346 68.1019 44.6346 67.9082C44.4717 67.8032 43.0705 66.8786 42.85 65.7016C42.8144 65.5107 42.7514 65.1452 42.9651 64.867C43.1472 64.6297 43.439 64.5765 43.5389 64.5588C44.1183 64.4606 44.6278 64.8166 44.8291 64.9448C46.4138 65.9594 48.7148 65.5585 48.9107 65.5216C50.0461 65.3116 50.9678 64.7811 50.9678 64.7811C51.6759 64.3733 52.1868 63.8851 52.6498 64.0719C52.8963 64.1715 53.0141 64.417 53.0579 64.5083C53.3072 65.0279 53.0442 65.613 52.8936 65.9362C52.1745 67.4759 50.5131 68.211 50.194 68.346C49.6927 68.5587 48.7353 68.882 47.5109 68.8179V68.8192Z" fill="#151020"/>
    <path d="M56.5048 55.2756C56.1911 54.9879 56.1268 54.7083 56.2802 54.3782C56.3034 54.3291 56.3308 54.2814 56.361 54.2364C57.7539 52.0858 59.6097 50.5106 62.0806 49.7142C63.1325 49.3746 64.2131 49.2314 65.3184 49.3009C65.4595 49.3105 65.6046 49.3241 65.7402 49.3596C66.0279 49.4346 66.2333 49.6814 66.2593 49.9706C66.2854 50.2692 66.1662 50.5011 65.9101 50.6606C65.8019 50.7274 65.695 50.7588 65.5731 50.6811C64.7911 50.1874 63.9474 50.2283 63.0968 50.422C62.0696 50.6552 61.1424 51.1216 60.2644 51.6875C58.8427 52.604 57.6197 53.7305 56.6349 55.1065C56.5979 55.1597 56.5555 55.2088 56.5034 55.277L56.5048 55.2756Z" fill="#151020"/>
    <path d="M41.289 58.2529C41.2506 58.2366 41.2082 58.2257 41.1739 58.2025C39.881 57.3201 38.4319 56.8073 36.9308 56.4173C36.0611 56.1909 35.1777 56.0382 34.2778 55.9795C33.7615 55.9454 33.2492 55.9673 32.7411 56.0641C32.2549 56.1568 31.8248 56.3477 31.5221 56.7487C31.0592 56.405 31.0783 55.8159 31.5495 55.5513C31.6988 55.4668 31.8727 55.4177 32.0398 55.3713C33.1506 55.059 34.2847 54.9949 35.4256 55.1122C37.139 55.2895 38.7415 55.8091 40.1946 56.7432C40.5069 56.9437 40.8041 57.1701 41.089 57.4074C41.3821 57.6515 41.4314 57.9093 41.2876 58.2543L41.289 58.2529Z" fill="#151020"/>
    <path d="M41.2699 90.704C37.5253 90.2853 35.0353 89.5271 33.163 88.7838C32.1207 88.3706 30.3813 87.6683 28.3693 86.329C26.119 84.8316 24.1262 82.9387 22.5319 80.7594C21.5732 79.4488 20.6788 78.0032 20.1761 76.4513C19.994 75.888 19.8817 75.2975 19.894 74.7043C19.9077 74.0701 20.0405 73.5164 19.8515 72.8864C19.7693 72.6136 19.6118 72.3341 19.3201 71.9999C18.1723 70.6866 17.6053 68.8878 17.793 67.1558C17.8888 66.2762 18.1847 65.3952 18.7709 64.7297C19.3571 64.0642 20.261 63.6441 21.1417 63.7723C21.617 63.8419 23.2222 64.3792 23.2222 64.3792L25.3794 60.1515C23.9166 60.1842 21.769 60.1461 19.2009 59.7778C15.8782 59.3032 13.8539 58.9896 11.7953 57.5576C10.779 56.8512 8.32603 55.1438 8.02608 52.3317C7.76585 49.881 9.28751 47.9662 10.2312 46.7784C10.7736 46.0951 11.9213 44.805 16.726 42.2398C18.3586 41.3683 20.5966 40.2514 23.3537 39.1072C23.3537 39.1072 23.4153 36.8529 23.4687 35.9514C23.7002 32.0415 24.2878 28.1166 25.7026 24.444C28.0228 18.4216 33.3397 12.8438 39.9167 11.6627C47.9784 10.2144 56.5345 11.109 63.9552 14.6385C69.1845 17.1246 73.8166 20.9186 77.1448 25.655C80.9592 31.0828 82.2179 37.097 82.7754 43.5926C83.0041 46.2561 83.4492 48.97 83.1986 51.6307C83.0657 53.0435 83.0082 54.3187 82.6891 55.6865C82.4932 56.5252 82.2727 57.2153 82.1001 57.7076C82.7863 57.4417 84.7381 56.7912 86.8925 57.5603C87.7595 57.8699 88.3306 58.2913 88.5087 58.4291C90.281 59.8065 91.1781 62.1562 90.9644 64.386C90.7508 66.6144 89.4989 68.686 87.7403 70.0811C86.4268 71.1244 84.8517 71.8008 83.215 72.1459C81.2989 72.5509 81.266 72.2331 80.699 74.1247C80.2908 75.4857 79.5458 76.724 78.9691 78.0237C78.3775 79.3588 76.9256 81.3349 73.155 84.1497C71.3403 85.2257 68.8996 86.52 65.896 87.6955C65.896 87.6955 54.4431 92.1769 41.2685 90.7067L41.2699 90.704ZM75.1931 47.5326C74.033 49.4596 72.8291 51.1943 70.9801 52.5417C70.7363 52.719 70.0692 52.8717 70.1816 52.3426C70.2076 52.2171 70.2829 52.108 70.3541 52.0003C72.1333 49.3477 73.4098 46.0051 72.4017 42.8317C72.3935 42.803 72.362 42.7826 72.3113 42.7239C71.8758 42.8535 71.4224 42.9762 70.9787 43.1249C69.5981 43.5858 68.2161 44.04 66.8438 44.5255C63.9935 45.5346 61.2269 46.7416 58.489 48.0181C55.0074 49.6409 51.5887 51.3879 48.203 53.2031C47.4031 53.6313 46.5827 54.0241 45.7691 54.4264C45.613 54.5028 45.4459 54.5669 45.2761 54.6023C44.5817 54.7469 44.0475 54.1864 44.2461 53.5113C44.3036 53.3163 44.4091 53.1295 44.5255 52.9604C44.7597 52.618 45.0172 52.2921 45.2638 51.958C45.3035 51.9048 45.3309 51.8434 45.3925 51.7398C45.2391 51.793 45.1487 51.8257 45.0556 51.8543C44.5557 52.0125 44.0585 52.1844 43.5517 52.3221C43.3011 52.3903 43.034 52.4271 42.7751 52.4217C42.2478 52.4094 41.878 52.0316 41.8356 51.5107C41.8287 51.4179 41.8246 51.3252 41.8177 51.197C41.6233 51.272 41.4603 51.3307 41.3014 51.3988C39.2784 52.2621 37.2199 53.0395 35.2449 54.0118C34.823 54.2191 34.4518 54.1496 34.2026 53.8454C33.9122 53.4922 33.9081 53.0326 34.1971 52.6726C34.2998 52.5458 34.4162 52.4285 34.5313 52.3126C35.4722 51.3634 36.5104 50.5247 37.5719 49.7146C37.6582 49.6491 37.7417 49.5782 37.8266 49.51C37.7129 49.5141 37.6267 49.555 37.5445 49.6014C34.7258 51.2066 32.1317 53.1104 29.7978 55.362C29.6526 55.5024 29.5321 55.6797 29.4362 55.8584C29.2102 56.2811 29.0021 56.7148 28.7925 57.1471C27.9625 58.8546 27.1448 60.5702 26.1779 62.2053C25.2095 63.8432 24.3741 65.5452 23.5906 67.2745C23.24 68.0491 22.877 68.8196 22.5538 69.6065C21.9827 70.9976 21.5444 72.2863 21.5101 73.8165C21.4745 75.4762 21.9786 76.7227 22.3443 77.6023C22.6469 78.3292 23.8755 81.0867 27.5283 83.8402C29.7115 85.4862 32.3371 86.7927 36.1406 87.8155C43.1477 89.7016 50.8395 89.1889 57.8987 87.8319C61.8336 87.075 65.7097 85.9322 69.3611 84.2752C71.4087 83.3465 73.2879 82.0768 74.9232 80.5385C76.1148 79.4161 77.1804 78.1942 77.9844 76.7595C78.3282 76.1444 78.5363 75.4789 78.7856 74.8284C79.669 72.525 79.8019 70.0388 80.4497 67.6741C80.9058 66.0116 81.6413 64.3737 82.9 63.19C83.0657 63.0332 83.2451 62.8831 83.4574 62.7986C84.0409 62.5667 84.6764 63.0836 84.4847 63.7082C84.3984 63.9878 84.1614 64.191 83.9491 64.3942C83.4753 64.8456 83.0616 65.3679 82.7315 65.9339C82.4754 66.373 81.9659 67.2663 82.1412 67.7832C82.7069 67.6263 83.2698 67.2908 83.8081 67.0494C84.1833 66.8817 84.6175 66.7126 84.9887 66.8885C85.2996 67.0358 85.4681 67.4299 85.3585 67.7545C85.238 68.1118 84.8641 68.3109 84.5162 68.4582C83.8765 68.7282 83.2013 68.9124 82.5877 69.241C82.2796 69.406 81.9769 69.6052 81.7481 69.8738C81.5441 70.1138 81.0606 70.8966 81.7125 70.8216C84.0669 70.5475 86.4652 69.732 87.9183 67.7477C88.4087 67.0781 88.8798 66.3894 89.1373 65.5902C89.451 64.6179 89.4565 63.6155 89.3674 62.6104C89.3236 62.1153 89.1579 61.6585 88.9195 61.2193C88.473 60.3956 87.8266 59.7697 87.0144 59.3264C85.8023 58.6664 84.5353 58.5682 83.252 59.1205C82.0631 59.6319 81.188 60.5088 80.5346 61.5985C80.1991 62.1576 79.9388 62.7631 79.6581 63.355C79.2047 64.3096 79.0157 65.3447 78.7596 66.358C78.65 66.7903 78.5829 67.2336 78.4911 67.6713C78.387 68.1582 77.9077 68.405 77.4927 68.1855C77.2366 68.0505 77.1064 67.8241 77.1201 67.5418C77.1352 67.2267 77.1722 66.9117 77.216 66.5994C77.2749 66.1807 77.3502 65.7648 77.4173 65.3488C77.3489 65.4102 77.3146 65.477 77.2954 65.5493C77.1462 66.0962 77.0023 66.6444 76.8531 67.1899C76.8161 67.3263 76.7818 67.4668 76.7216 67.5922C76.5764 67.8909 76.2956 68.0395 75.9696 68.0095C75.656 67.9809 75.4053 67.7654 75.3259 67.4436C75.2958 67.3181 75.2793 67.1845 75.2793 67.0549C75.2793 66.433 75.2588 65.8098 75.2972 65.1906C75.4177 63.1654 75.5875 61.143 75.6875 59.1178C75.7683 57.4949 75.8176 55.8693 75.8039 54.245C75.7984 53.5795 75.7395 52.2594 75.5793 50.5888C75.467 49.4227 75.3287 48.3958 75.1958 47.5394L75.1931 47.5326ZM57.6425 14.1161C57.4028 13.9252 57.1193 13.7738 56.7824 13.6756C53.3076 12.6624 49.4233 12.3023 45.8171 12.4523C41.6698 12.6242 34.1478 13.7152 32.044 17.9061C31.4743 19.0421 31.2496 20.3131 31.0332 21.5637C30.1128 26.8647 29.0856 32.1397 28.6145 37.4748C28.498 38.7881 29.124 38.439 30.1745 38.2562C31.225 38.0735 32.2769 37.903 33.3301 37.7462C35.438 37.4325 37.5541 37.172 39.6756 36.9647C43.9188 36.5501 48.1811 36.3483 52.4448 36.3619C54.1897 36.3674 55.9346 36.4601 57.6713 36.6224C59.3833 36.782 61.1036 37.1802 62.8129 37.2811C63.0416 36.4792 62.6609 35.1427 62.5623 34.2986C62.4417 33.2648 62.3034 32.2324 62.1473 31.2042C61.835 29.1462 61.4542 27.0979 61.0036 25.0658C60.5571 23.0502 60.0421 21.0495 59.4614 19.068C58.982 17.4315 58.9546 15.1622 57.6425 14.1161ZM79.4554 42.2793C80.8949 42.6475 81.1195 42.5234 81.2044 42.4212C81.3441 42.2561 81.2674 41.9793 81.2359 41.8702C77.327 28.4698 75.8943 26.4528 75.8943 26.4528C71.7292 20.59 66.6438 17.7888 64.4852 16.6228C63.0677 15.8563 61.3597 14.8921 59.7655 14.5266C59.9011 15.1022 60.201 16.0322 60.3996 16.6337C60.6749 17.4628 60.9297 18.2988 61.168 19.1403C61.6295 20.7659 62.0254 22.4092 62.3746 24.0621C63.0389 27.2083 63.5662 30.3818 63.9935 33.5676C64.1017 34.3736 64.2045 35.1795 64.3003 35.9869C64.3989 36.8147 64.2812 37.4461 65.181 37.7925C66.7246 38.3858 71.5868 39.575 74.2686 40.5542C75.667 41.0656 77.0914 41.5033 78.4939 42.0052C78.4939 42.0052 78.7623 42.1007 79.4526 42.278L79.4554 42.2793ZM12.2856 55.5529C11.0913 53.8345 10.8475 53.0558 11.0694 51.3825C11.4283 48.6918 13.7991 47.1493 16.0645 46.0379C19.7255 44.2418 23.5057 43.088 27.4749 42.2002C31.5236 41.2933 35.7119 40.4791 39.8523 40.1614C44.0283 39.8423 48.3071 39.9132 52.4324 40.6687C54.2157 40.996 55.5073 41.5047 55.5073 41.5047C56.277 41.742 56.6619 41.8606 56.7783 41.9125C57.322 42.1484 58.3315 42.4293 58.3315 42.4293C58.3315 42.4293 58.6903 42.4198 58.7711 42.4102C59.8285 42.2834 60.8968 42.2439 61.9528 42.102C64.7824 41.7215 64.3907 41.8361 65.8754 41.6056C66.8807 41.4502 68.2134 41.2197 69.7816 40.8787C68.2832 40.3878 66.6547 39.8941 65.1714 39.4877C63.3964 39.0008 61.5953 38.6299 59.7655 38.413C57.8178 38.1826 55.862 38.0516 53.9021 37.9725C49.7342 37.8034 45.5788 37.9862 41.4315 38.3735C39.5894 38.5453 37.7513 38.7635 35.9146 38.9872C33.2082 39.3172 30.5182 39.7591 27.8475 40.3114C26.0669 40.6796 24.2946 41.0778 22.5675 41.6479C20.5706 42.3066 18.6216 43.0826 16.7068 43.954C14.7633 44.8378 13.0869 46.0747 11.6227 47.6035C11.1721 48.074 10.7708 48.6031 10.4092 49.1459C9.76278 50.1169 9.58746 51.2011 9.80524 52.3398C9.9559 53.1267 10.338 53.8154 10.8078 54.4537C11.1352 54.8983 11.7104 55.5188 12.2843 55.5515L12.2856 55.5529ZM27.2407 38.8413C27.2407 37.4857 27.2873 35.5778 27.5119 33.3044C27.6228 32.1861 27.8529 30.2782 28.2405 27.7988C28.6569 25.1368 29.3048 22.5088 29.9293 19.8876C29.9444 19.8235 29.9471 19.7581 29.9663 19.6176C29.8773 19.7321 29.8321 19.7785 29.7992 19.8331C29.0582 21.0441 28.3282 22.2674 27.8091 23.5902C27.4763 24.4399 27.0942 25.5091 26.6038 27.0842C25.8985 29.3508 25.5451 30.4855 25.2671 32.137C25.0055 33.6862 24.9425 34.9122 24.9055 35.6487C24.8343 37.0888 24.8671 38.3421 24.9301 39.3472C25.7273 39.1727 26.4901 39.0049 27.2407 38.8413ZM20.3555 71.3289C20.4583 71.318 20.6281 71.1394 20.6884 71.0876C20.8157 70.9785 20.9335 70.8585 21.0486 70.7371C21.1951 70.5816 21.1677 70.3948 21.0938 70.2134C20.9568 69.8806 20.8034 69.5561 20.6733 69.2206C20.335 68.36 20.3377 67.2704 20.9418 66.5176C21.3444 66.0157 22.1826 65.7961 22.751 66.1412C22.7853 66.1616 22.8264 66.1712 22.888 66.1957C23.0113 65.9189 23.0661 65.8398 23.1866 65.5711C22.7757 65.2138 22.1909 65.0065 21.6663 64.8783C21.1116 64.742 20.4939 64.8538 20.0405 65.2043C19.4803 65.6379 19.1736 66.3635 19.0571 67.0426C18.9147 67.8691 18.9708 68.7623 19.2516 69.5533C19.4776 70.1875 19.7899 70.778 20.2556 71.273C20.2761 71.2949 20.298 71.3167 20.3254 71.3262C20.335 71.329 20.3432 71.3303 20.3555 71.3289Z" fill="#151020"/>
    <path d="M58.5016 15.2929C60.1945 19.7374 61.8202 28.5078 61.8202 28.5078C62.1339 30.0039 62.4092 31.6445 62.6078 33.4147C62.7612 34.7825 62.8515 36.0822 62.8967 37.3014C61.7339 37.1528 60.1342 36.9714 58.2249 36.8241C56.7416 36.7095 52.256 36.3986 45.6243 36.6877C41.2784 36.8773 35.4807 37.3491 28.5778 38.5138C28.6147 37.281 28.701 35.5762 28.9147 33.5511C28.9722 33.0069 29.0585 32.2541 29.5995 28.7465C30.3816 23.6746 30.7034 22.39 31.091 20.8121C31.4033 19.5356 31.7279 18.2687 32.4757 17.1858C33.6125 15.5384 35.3109 14.727 37.3982 13.9142C40.1087 12.8586 42.3015 12.6418 44.8025 12.4126C44.8025 12.4126 48.7059 12.0553 55.3103 13.1504C55.9815 13.2623 57.3182 13.5091 58.1058 14.5606C58.34 14.8742 58.4523 15.1606 58.503 15.2929H58.5016Z" fill="#FF7F61"/>
    <path d="M40.7924 26.5596C41.0642 27.5201 41.4913 28.3544 42.413 28.8286C42.9853 29.1236 43.5432 29.2356 44.1931 29.0504C46.6639 28.3402 45.7075 31.36 47.087 29.1501C47.5672 28.3809 47.8207 27.5201 47.8452 26.641C47.8861 25.1107 46.5045 24.1848 45.0719 24.7973C44.2585 25.1453 43.4655 25.6093 42.8647 26.2849C42.5683 26.6186 42.0165 27.0582 42.5152 27.5242C42.8565 27.8416 43.1651 27.6951 43.4901 27.3899C43.6597 27.2291 43.9928 27.0561 44.1481 26.8811C44.3545 26.6512 44.2462 26.4253 44.471 26.2116C44.6468 26.0427 45.2844 25.6195 45.4581 25.4485C45.6727 25.2369 45.9875 25.3549 46.2899 25.4343C46.576 25.5096 46.7293 25.8067 46.8111 26.0956C46.9582 26.6125 46.9214 27.1314 46.6803 27.628C45.8669 29.2966 47.5529 26.1893 45.9711 27.0948C44.9288 27.691 43.7169 27.4774 42.8688 26.6919C42.0676 25.9512 38.8733 29.1623 39.4599 28.0349C40.7535 25.5584 42.7911 23.9549 45.5072 23.6232C47.837 23.3383 49.053 24.6569 49.2533 27.046C49.2737 27.2983 49.2615 27.5893 49.5925 27.6015C50.0054 27.6157 49.8562 27.2881 49.8582 27.0643C49.8603 26.4823 50.1893 26.4009 50.6634 26.5433C51.3747 26.759 51.9816 27.6544 51.9326 28.4053C51.8038 30.3202 50.0095 31.4496 48.2866 30.6417C47.7226 30.3772 47.5754 30.426 47.2075 30.9815C46.4125 32.1781 48.7567 29.1704 47.6408 30.1615C46.7171 30.9795 45.6911 31.5676 44.5548 31.9888C43.0302 32.5525 41.7488 32.0072 40.6473 30.9897C39.7317 30.1432 39.4987 29.0422 39.8482 27.8538C39.9933 27.3593 40.2017 26.8689 40.7944 26.5596H40.7924Z" fill="#F8F6F3"/>
    <path d="M41.1901 32.8052C40.4257 32.4633 39.0156 32.0278 39.2486 31.1345C39.6185 29.708 41.4701 31.3563 39.5408 29.5411C39.2118 29.2318 39.4999 29.0832 39.5551 28.5969C39.8658 25.8497 40.0374 24.8811 42.3407 23.715C43.2133 23.2735 44.131 22.9296 45.1201 22.7769C46.9472 22.492 48.4043 23.1392 49.3015 24.7651C49.4589 25.05 49.6122 25.3532 49.8554 25.577C50.1333 25.8355 50.4869 25.8802 50.8466 25.9453C51.1715 26.0044 51.4556 26.1204 51.7111 26.332C52.175 26.7166 52.5163 27.2477 52.6655 27.8317C52.9843 29.0792 52.3834 30.3469 51.3759 31.0978C50.6913 31.6086 49.8022 31.865 48.9602 31.631C47.5072 31.2281 46.5487 32.1519 45.8742 33.0941C44.9198 34.427 47.2578 31.8711 45.7904 32.6139C44.3312 33.3526 42.6104 33.4441 41.1901 32.8072V32.8052ZM40.8018 26.5599C39.7738 27.0971 39.4856 28.7149 39.8208 29.7365C40.0129 30.3184 40.4278 30.8007 40.8937 31.1996C41.4231 31.6534 42.0423 32.0258 42.729 32.156C44.18 32.4328 45.627 31.7348 46.7633 30.8964C47.5358 30.3266 45.1937 33.9325 45.7618 33.1653C46.3443 32.3778 46.798 31.4845 47.4152 30.7234C47.4806 30.642 47.5521 30.5586 47.6502 30.5179C47.8546 30.4304 48.0794 30.5525 48.2817 30.6461C49.9862 31.4519 51.8194 30.2208 51.942 28.4097C51.9931 27.6588 51.3841 26.7634 50.6729 26.5477C50.1987 26.4032 49.8697 26.4866 49.8676 27.0686C49.8676 27.2925 50.0148 27.6201 49.602 27.6059C49.2688 27.5937 49.2831 27.3027 49.2627 27.0503C49.2157 26.4989 48.7497 24.9808 48.0855 24.3133C47.3416 23.5645 46.1747 23.6052 45.5166 23.6275C43.7202 23.6906 42.4551 24.7305 41.5314 25.4875C41.2412 25.7256 40.6015 26.273 40.0068 27.1419C39.5858 27.7565 39.4999 28.4097 39.4754 29.1789C39.4631 29.5737 39.2138 29.9603 39.3855 30.3164C39.8188 31.2199 43.8265 27.4939 44.8299 27.4248C45.6167 27.3698 46.33 26.9547 46.9594 26.4826C47.9506 25.7419 45.8313 29.1423 46.4506 28.0719C46.659 27.7096 46.8409 27.325 46.894 26.9099C46.9472 26.4968 46.8552 26.0491 46.5752 25.7398C46.5241 25.6828 46.3218 25.5038 46.005 25.4692C45.6903 25.4346 45.4553 25.5689 45.3838 25.6157C44.8687 26.1672 44.4498 26.621 44.0758 27.0463C44.0758 27.0463 43.4647 27.732 42.9824 27.732C42.9599 27.732 42.9395 27.732 42.9211 27.728C42.6615 27.6913 42.3836 27.4939 42.3305 27.2396C42.2794 27.0015 42.4388 26.7817 42.5716 26.6169C43.6078 25.3328 44.8095 24.9055 44.8095 24.9055C45.3163 24.6837 45.8824 24.5331 46.4199 24.6633C47.1434 24.8363 47.6768 25.5078 47.8301 26.2323C47.8628 26.3869 47.8873 26.5518 47.8914 26.7329C47.9139 27.5082 47.6298 28.1004 47.4867 28.3893C45.2019 32.9639 45.1753 29.2277 45.1753 29.2277C44.554 29.3478 43.3482 29.5798 42.2548 28.8614C41.1472 28.1329 40.8672 26.8957 40.8038 26.5599H40.8018Z" fill="#151020"/>
    <path d="M38.7231 28.9161C39.4507 29.7382 40.2722 30.3609 41.4085 30.3955C42.1156 30.4158 42.7226 30.2652 43.2765 29.7728C45.3835 27.9027 46.7773 25.6581 47.088 22.8194C47.1963 21.8304 47.0369 20.8597 46.6424 19.9766C45.9537 18.4422 44.145 18.1777 43.0169 19.4617C42.3772 20.1902 41.8132 21.0246 41.5414 21.9769C41.4065 22.447 41.0693 23.1429 41.7846 23.3688C42.273 23.5235 42.5101 23.2304 42.6858 22.7766C42.7778 22.5386 43.0231 22.2089 43.0946 21.9627C43.1886 21.6371 42.9761 21.4661 43.0946 21.1487C43.1886 20.8984 43.6178 20.178 43.7077 19.9277C43.8201 19.6184 44.188 19.5838 44.5252 19.5207C44.844 19.4597 45.1383 19.6815 45.357 19.9277C45.7493 20.3713 45.9599 20.9004 45.9578 21.5048C45.9476 23.5397 45.2343 25.3549 44.1001 26.9971C43.3521 28.0797 42.0523 28.4399 40.8383 28.0655C39.6918 27.7094 38.9622 26.7122 39.0072 25.3203C39.1053 22.2577 40.3601 19.7059 42.8902 18.0963C45.0606 16.7145 46.8918 17.4431 48.2304 19.7141C48.3714 19.9542 48.4961 20.2492 48.8313 20.1048C49.2461 19.9257 48.9437 19.6693 48.8374 19.4475C48.5615 18.8695 48.8476 18.6335 49.3871 18.5521C50.1944 18.43 51.2224 19.0283 51.531 19.7954C52.3158 21.7531 51.0773 23.7168 48.9866 23.7331C48.3019 23.7371 48.1793 23.8552 48.0792 24.5796C47.8646 26.1404 47.8482 27.7419 47.2147 29.2478C46.6915 30.4952 46.1295 31.7202 45.2037 32.6746C43.9632 33.9526 42.2608 33.859 40.6871 33.3726C39.3771 32.9676 38.623 31.9868 38.4002 30.6458C38.3082 30.0882 38.2817 29.5021 38.719 28.9161H38.7231Z" fill="#F8F6F3"/>
    <path d="M42.0866 34.9157C41.1669 34.9381 40.2329 34.7102 39.3664 34.1791C37.4841 33.0252 36.871 30.4958 37.8725 28.5646C38.1013 28.1251 38.2465 27.7425 38.0686 27.2338C37.0672 24.3686 38.0686 21.9287 39.7935 19.6862C40.4455 18.8376 41.1914 18.0643 42.0968 17.4437C43.7685 16.298 45.52 16.2491 47.1836 17.4355C47.4758 17.6431 47.7701 17.871 48.1175 17.9789C48.5161 18.103 48.888 17.9788 49.2743 17.8751C49.6258 17.7794 49.9609 17.7611 50.3145 17.8506C50.9562 18.0134 51.5489 18.3777 51.974 18.8844C52.8855 19.967 52.8937 21.5074 52.254 22.7264C51.8187 23.5546 51.0605 24.2282 50.1183 24.395C48.4874 24.684 48.9105 26.4015 48.6918 27.653C48.3832 29.4234 47.6475 31.1226 46.548 32.5491C45.4566 33.9695 43.7951 34.875 42.0845 34.9157H42.0866ZM38.7247 28.9167C37.9644 29.9342 38.4488 31.672 39.2683 32.5246C39.7343 33.009 40.378 33.2898 41.0279 33.4648C41.7677 33.6642 42.5587 33.7395 43.3005 33.5442C44.868 33.1331 45.9676 31.7575 46.6931 30.39C47.1856 29.4621 47.4881 28.4527 47.6863 27.423C47.8886 26.3669 47.9111 25.2701 48.1584 24.2261C48.185 24.1142 48.2156 23.9982 48.2933 23.9107C48.4527 23.7276 48.7347 23.7398 48.9779 23.7398C51.0482 23.7316 52.2785 21.6479 51.5346 19.7961C51.226 19.0289 50.198 18.4306 49.3908 18.5527C48.8533 18.6341 48.5671 18.8702 48.841 19.4481C48.9473 19.6699 49.2497 19.9243 48.8349 20.1054C48.4997 20.2498 48.375 19.9548 48.234 19.7147C47.9254 19.1896 46.7401 17.9097 45.7652 17.5617C44.6719 17.171 43.5376 17.7631 42.8959 18.0969C41.1465 19.0085 40.3903 20.6365 39.8385 21.8229C39.6648 22.1953 39.2928 23.0398 39.1171 24.1814C38.9924 24.9892 38.8923 25.8175 39.2356 26.5928C39.4114 26.9896 39.675 27.3477 40.0143 27.6184C40.8746 28.3082 42.1642 28.412 43.1248 27.8667C43.8768 27.4413 44.3857 26.6925 44.7843 25.9274C45.4117 24.7247 45.8368 23.4081 45.9389 22.0569C45.9737 21.6011 45.9696 21.133 45.8245 20.6975C45.6794 20.2641 45.3769 19.8632 44.9498 19.6902C44.8721 19.6597 44.5881 19.5763 44.257 19.6902C43.93 19.8062 43.7604 20.0504 43.7113 20.1298C43.464 20.9173 43.2658 21.5644 43.0982 22.1647C43.0982 22.1647 42.8203 23.1313 42.3441 23.3613C42.3216 23.3715 42.3012 23.3796 42.2807 23.3857C42.0069 23.4732 41.6369 23.4081 41.4632 23.1822C41.2997 22.9706 41.3529 22.6775 41.406 22.4517C41.8209 20.6914 42.8039 19.7004 42.8039 19.7004C43.2004 19.2426 43.6888 18.8254 44.2815 18.6992C45.0806 18.5283 45.9287 18.9414 46.4253 19.5865C46.5316 19.7248 46.6338 19.8754 46.7258 20.0525C47.1182 20.8095 47.1202 21.5298 47.1141 21.8819C47.0344 27.4902 44.3244 29.4905 44.3244 29.4905C43.7665 29.9036 42.6833 30.7034 41.2589 30.508C39.814 30.3106 38.9495 29.2179 38.7247 28.9147V28.9167Z" fill="#151020"/>
    <path d="M105.688 66V50.2617H101.269V44.0655H105.688V43.4252C105.688 41.6628 105.943 40.1894 106.453 39.0053C106.962 37.8073 107.63 36.8435 108.456 36.1137C109.296 35.3702 110.212 34.8056 111.203 34.4201C112.194 34.0346 113.179 33.7729 114.157 33.6353C115.148 33.4976 116.036 33.4287 116.821 33.4287C117.881 33.4287 118.652 33.4907 119.134 33.6146C119.616 33.7248 119.94 33.8143 120.105 33.8831V40.1412C119.94 40.0862 119.637 40.0242 119.196 39.9554C118.756 39.8727 118.28 39.8314 117.771 39.8314C117.069 39.8314 116.47 39.9141 115.974 40.0793C115.492 40.2307 115.107 40.4648 114.817 40.7815C114.528 41.0982 114.315 41.4838 114.177 41.9381C114.053 42.3925 113.991 42.9158 113.991 43.5078V44.0655H119.547V50.2617H113.991V66H105.688ZM124.182 57.3047V52.3477H137.111L136.492 53.4217C136.492 53.3116 136.492 53.1945 136.492 53.0706C136.492 52.9329 136.492 52.8159 136.492 52.7195C136.492 52.2513 136.354 51.7694 136.078 51.2737C135.817 50.7643 135.383 50.3374 134.777 49.9932C134.185 49.649 133.387 49.4768 132.381 49.4768C131.404 49.4768 130.585 49.6834 129.924 50.0965C129.263 50.5095 128.767 51.1223 128.437 51.9347C128.106 52.7333 127.941 53.7109 127.941 54.8675C127.941 56.0792 128.099 57.1119 128.416 57.9656C128.733 58.8193 129.235 59.4733 129.924 59.9277C130.612 60.3684 131.514 60.5887 132.629 60.5887C133.29 60.5887 133.855 60.5405 134.323 60.4441C134.791 60.3477 135.163 60.2238 135.438 60.0723C135.727 59.9209 135.941 59.7556 136.078 59.5766C136.23 59.3976 136.319 59.2255 136.347 59.0603H144.567C144.471 60.0241 144.12 60.9536 143.514 61.8486C142.922 62.7436 142.103 63.5491 141.056 64.2651C140.01 64.9673 138.75 65.525 137.276 65.938C135.803 66.3373 134.137 66.537 132.278 66.537C129.703 66.537 127.473 66.0551 125.586 65.0912C123.7 64.1136 122.247 62.7642 121.228 61.0431C120.209 59.3081 119.7 57.3185 119.7 55.0741C119.7 52.7746 120.223 50.7643 121.27 49.0431C122.316 47.3219 123.782 45.9863 125.669 45.0362C127.569 44.0862 129.772 43.6111 132.278 43.6111C134.867 43.6111 137.097 44.0999 138.97 45.0775C140.856 46.0414 142.309 47.4183 143.328 49.2083C144.347 50.9846 144.856 53.0982 144.856 55.5491C144.856 55.9622 144.85 56.3133 144.836 56.6024C144.822 56.8916 144.801 57.1257 144.774 57.3047H124.182ZM150.383 57.3047V52.3477H163.313L162.693 53.4217C162.693 53.3116 162.693 53.1945 162.693 53.0706C162.693 52.9329 162.693 52.8159 162.693 52.7195C162.693 52.2513 162.555 51.7694 162.28 51.2737C162.018 50.7643 161.585 50.3374 160.979 49.9932C160.387 49.649 159.588 49.4768 158.583 49.4768C157.605 49.4768 156.786 49.6834 156.125 50.0965C155.464 50.5095 154.968 51.1223 154.638 51.9347C154.308 52.7333 154.142 53.7109 154.142 54.8675C154.142 56.0792 154.301 57.1119 154.617 57.9656C154.934 58.8193 155.437 59.4733 156.125 59.9277C156.814 60.3684 157.715 60.5887 158.831 60.5887C159.492 60.5887 160.056 60.5405 160.524 60.4441C160.993 60.3477 161.364 60.2238 161.64 60.0723C161.929 59.9209 162.142 59.7556 162.28 59.5766C162.431 59.3976 162.521 59.2255 162.548 59.0603H170.769C170.672 60.0241 170.321 60.9536 169.715 61.8486C169.123 62.7436 168.304 63.5491 167.258 64.2651C166.211 64.9673 164.951 65.525 163.478 65.938C162.005 66.3373 160.338 66.537 158.48 66.537C155.905 66.537 153.674 66.0551 151.788 65.0912C149.901 64.1136 148.449 62.7642 147.43 61.0431C146.411 59.3081 145.901 57.3185 145.901 55.0741C145.901 52.7746 146.425 50.7643 147.471 49.0431C148.518 47.3219 149.984 45.9863 151.87 45.0362C153.771 44.0862 155.974 43.6111 158.48 43.6111C161.068 43.6111 163.299 44.0999 165.172 45.0775C167.058 46.0414 168.511 47.4183 169.53 49.2083C170.548 50.9846 171.058 53.0982 171.058 55.5491C171.058 55.9622 171.051 56.3133 171.037 56.6024C171.023 56.8916 171.003 57.1257 170.975 57.3047H150.383ZM180.601 59.7832H191.775V66H171.803V60.1549L182.584 49.9312L182.811 50.2617H172.154V44.0655H191.486V49.9106L180.829 60.093L180.601 59.7832ZM208.905 66.5163C207.156 66.5163 205.566 66.0275 204.134 65.0499C202.715 64.0723 201.586 62.7573 200.746 61.105C199.906 59.4389 199.486 57.5938 199.486 55.5698C199.486 55.5009 199.486 55.4321 199.486 55.3632C199.486 55.2944 199.486 55.2255 199.486 55.1567L202.419 55.0947C202.419 55.136 202.419 55.1842 202.419 55.2393C202.419 55.2806 202.419 55.3219 202.419 55.3632C202.419 56.272 202.619 57.0362 203.018 57.6558C203.431 58.2754 203.948 58.7436 204.567 59.0603C205.201 59.3632 205.848 59.5147 206.509 59.5147C207.555 59.5147 208.512 59.1498 209.38 58.42C210.247 57.6902 210.681 56.5129 210.681 54.8882C210.681 53.2634 210.247 52.1068 209.38 51.4183C208.526 50.7161 207.569 50.365 206.509 50.365C205.862 50.365 205.221 50.5164 204.588 50.8193C203.968 51.1085 203.452 51.5491 203.039 52.1412C202.626 52.7333 202.419 53.4906 202.419 54.4131L199.486 54.2066C199.486 52.1687 199.906 50.3581 200.746 48.7746C201.586 47.1774 202.715 45.9244 204.134 45.0156C205.566 44.093 207.156 43.6318 208.905 43.6318C210.681 43.6318 212.354 44.0655 213.924 44.933C215.507 45.8004 216.794 47.0741 217.786 48.7539C218.777 50.42 219.273 52.4648 219.273 54.8882C219.273 57.4493 218.791 59.5904 217.827 61.3116C216.863 63.0327 215.597 64.3339 214.027 65.2151C212.457 66.0826 210.75 66.5163 208.905 66.5163ZM194.075 66V33.7179H202.419V66H194.075ZM228.737 66.4957C227.168 66.4957 225.763 66.2478 224.524 65.7522C223.285 65.2427 222.307 64.5129 221.591 63.5628C220.875 62.599 220.517 61.4286 220.517 60.0517C220.517 58.4269 220.978 57.1188 221.901 56.1274C222.837 55.136 224.028 54.3856 225.474 53.8761C226.934 53.3667 228.441 53.0431 229.997 52.9054C232.214 52.6989 233.708 52.5199 234.479 52.3684C235.25 52.2169 235.636 51.9484 235.636 51.5629C235.636 51.5491 235.636 51.5422 235.636 51.5422C235.636 51.0328 235.326 50.599 234.706 50.241C234.1 49.8693 233.288 49.6834 232.269 49.6834C231.168 49.6834 230.348 49.8899 229.811 50.303C229.274 50.7023 229.006 51.2875 229.006 52.0586H220.806C220.806 50.2135 221.323 48.6644 222.355 47.4114C223.388 46.1584 224.772 45.2152 226.507 44.5818C228.255 43.9347 230.197 43.6111 232.331 43.6111C234.355 43.6111 236.248 43.914 238.011 44.5199C239.787 45.1257 241.226 46.0552 242.328 47.3082C243.429 48.5474 243.98 50.1378 243.98 52.0792C243.98 52.3684 243.98 52.6575 243.98 52.9467C243.98 53.2359 243.98 53.525 243.98 53.8142V60.6093C243.98 61.2152 243.994 61.8004 244.021 62.3649C244.049 62.9294 244.131 63.4527 244.269 63.9346C244.421 64.4441 244.62 64.8847 244.868 65.2565C245.116 65.6145 245.316 65.8623 245.467 66H237.329C237.205 65.8761 237.026 65.6489 236.792 65.3184C236.558 64.988 236.365 64.6093 236.214 64.1825C236.007 63.5628 235.856 62.9845 235.76 62.4475C235.677 61.8967 235.636 61.2289 235.636 60.4441L237.453 61.704C237.081 62.7091 236.448 63.5697 235.553 64.2857C234.672 65.0017 233.632 65.5525 232.434 65.938C231.25 66.3098 230.018 66.4957 228.737 66.4957ZM231.216 60.5887C231.932 60.5887 232.634 60.4303 233.322 60.1136C234.025 59.7969 234.61 59.2737 235.078 58.5439C235.546 57.8004 235.78 56.7952 235.78 55.5284V54.7436L237.908 56.4579C236.999 56.7746 235.987 57.0431 234.872 57.2634C233.756 57.4699 232.689 57.6283 231.67 57.7384C230.72 57.8348 230.011 57.9931 229.543 58.2135C229.088 58.42 228.861 58.7573 228.861 59.2255C228.861 59.6937 229.068 60.0379 229.481 60.2582C229.894 60.4785 230.472 60.5887 231.216 60.5887ZM247.083 66V33.7179H254.973V51.3357L253.548 50.5508L260.488 44.0655H270.546L259.455 54.0827L261.107 51.2118L270.174 66H261.479L255.634 55.5284L257.865 55.4665L254.209 58.8744L254.973 55.3839V66H247.083Z" fill="#151020"/>
</svg>
